<svg width="47" height="48" viewBox="0 0 47 48" fill="none" xmlns="http://www.w3.org/2000/svg">
<path d="M26.0901 18.89C25.2702 19.14 24.4102 19.28 23.5102 19.28H23.5002C22.6002 19.28 21.7302 19.14 20.9202 18.89C20.9102 18.89 20.9102 18.89 20.9102 18.89L20.0936 22.88H15.9102V47.5H30.8302V22.88H26.9067L26.0901 18.89Z" fill="url(#paint0_linear_24_23)"/>
<path d="M15.6063 1.6875H31.3974C31.832 1.6875 32.1844 1.33508 32.1844 0.900391V0.786987C32.1844 0.352295 31.832 0 31.3974 0H15.6063C15.1717 0 14.8193 0.352295 14.8193 0.786987V0.900391C14.8193 1.33508 15.1717 1.6875 15.6063 1.6875Z" fill="url(#paint1_linear_24_23)"/>
<path d="M10.4684 7.79297C10.8773 10.6868 13.32 12.8733 16.2111 13.0248C17.2287 16.0776 20.1062 18.2844 23.4989 18.2844H23.505C26.8977 18.2844 29.7752 16.0776 30.7928 13.0248C33.6844 12.8735 36.1272 10.6868 36.5353 7.79297L36.9137 5.1123C37.0113 4.42285 36.8053 3.72559 36.3482 3.19922C35.8912 2.67285 35.2291 2.37109 34.5318 2.37109H31.1906V1.6875H15.8133V2.37109H12.4723C11.7755 2.37109 11.1134 2.67285 10.6564 3.19922C10.1993 3.72461 9.99278 4.42188 10.0899 5.1123L10.4684 7.79297ZM34.5318 4.37109C34.693 4.37109 34.7931 4.45898 34.838 4.51074C34.8834 4.5625 34.9557 4.67383 34.9332 4.83301L34.5548 7.51367C34.303 9.29761 32.9002 10.6805 31.1713 10.9797C31.1776 10.8528 31.1906 10.7274 31.1906 10.5989V4.37109H34.5318ZM19.775 9.08398C19.8575 8.82812 20.0743 8.64453 20.3404 8.60547L22.0909 8.35059L22.8736 6.76562C23.1109 6.28516 23.8932 6.28516 24.1305 6.76562L24.9132 8.35156L26.6622 8.60449C26.9293 8.64453 27.1456 8.82715 27.2281 9.08301C27.3106 9.33789 27.2428 9.61328 27.0509 9.80078L25.7848 11.0342L26.0836 12.7764C26.1285 13.042 26.0216 13.3047 25.8048 13.4619C25.6817 13.5518 25.5382 13.5967 25.3932 13.5967C25.2823 13.5967 25.171 13.5703 25.0675 13.5166L23.5021 12.6934L21.9371 13.5156C21.6983 13.6406 21.4156 13.6182 21.1983 13.4619C20.9811 13.3037 20.8746 13.041 20.9205 12.7764L21.2189 11.0342L19.9532 9.80078C19.7613 9.61426 19.693 9.33887 19.775 9.08398ZM12.1661 4.51074C12.211 4.45898 12.3111 4.37109 12.4723 4.37109H15.8133V10.5989C15.8133 10.7274 15.8263 10.8528 15.8326 10.9797C14.1036 10.6804 12.7007 9.29749 12.4488 7.51367L12.0704 4.83301C12.048 4.67383 12.1207 4.5625 12.1661 4.51074Z" fill="url(#paint2_linear_24_23)"/>
<path d="M22.2314 11.0498L22.0088 12.3486L23.1763 11.7354C23.2773 11.6807 23.3892 11.6543 23.5015 11.6543C23.6143 11.6543 23.7275 11.6816 23.8311 11.7363L24.9961 12.3486L24.7729 11.0488C24.7339 10.8242 24.8081 10.5928 24.9722 10.4307L25.9189 9.50781L24.6138 9.31836C24.3823 9.2832 24.1851 9.13867 24.0845 8.93066L23.5024 7.75195L22.9185 8.93457C22.8174 9.13965 22.6206 9.28418 22.3926 9.31738L21.0859 9.50781L22.0303 10.4277C22.1963 10.5928 22.2705 10.8242 22.2314 11.0498Z" fill="url(#paint3_linear_24_23)"/>
<path d="M14.91 31H0V47.5H14.91V31Z" fill="url(#paint4_linear_24_23)"/>
<path d="M46.7401 28.75H31.8301V47.5H46.7401V28.75Z" fill="url(#paint5_linear_24_23)"/>
<defs>
<linearGradient id="paint0_linear_24_23" x1="23.3702" y1="18.89" x2="29.7762" y2="37.5915" gradientUnits="userSpaceOnUse">
<stop stop-color="#F7C243"/>
<stop offset="1" stop-color="#FD902B"/>
</linearGradient>
<linearGradient id="paint1_linear_24_23" x1="23.5019" y1="-1.22437e-08" x2="23.5233" y2="1.23212" gradientUnits="userSpaceOnUse">
<stop stop-color="#F7C243"/>
<stop offset="1" stop-color="#FD902B"/>
</linearGradient>
<linearGradient id="paint2_linear_24_23" x1="23.5019" y1="1.6875" x2="24.8233" y2="13.6636" gradientUnits="userSpaceOnUse">
<stop stop-color="#F7C243"/>
<stop offset="1" stop-color="#FD902B"/>
</linearGradient>
<linearGradient id="paint3_linear_24_23" x1="23.5024" y1="7.75195" x2="24.0568" y2="11.015" gradientUnits="userSpaceOnUse">
<stop stop-color="#F7C243"/>
<stop offset="1" stop-color="#FD902B"/>
</linearGradient>
<linearGradient id="paint4_linear_24_23" x1="7.45499" y1="31" x2="9.74768" y2="42.5978" gradientUnits="userSpaceOnUse">
<stop stop-color="#F7C243"/>
<stop offset="1" stop-color="#FD902B"/>
</linearGradient>
<linearGradient id="paint5_linear_24_23" x1="39.2851" y1="28.75" x2="42.2136" y2="41.7865" gradientUnits="userSpaceOnUse">
<stop stop-color="#F7C243"/>
<stop offset="1" stop-color="#FD902B"/>
</linearGradient>
</defs>
</svg>
