<svg width="1810" height="1571" viewBox="0 0 1810 1571" fill="none" xmlns="http://www.w3.org/2000/svg">
<g opacity="0.1">
<path opacity="0.1" d="M1159.45 854.035L1100.66 888.161L1041.52 854.035L1100.31 819.909L1159.45 854.035Z" fill="#0071BC"/>
</g>
<g opacity="0.1">
<path opacity="0.1" d="M1084.58 898.881L1050.28 918.892L1015.62 898.881L1049.92 879.049L1084.58 898.881Z" fill="#0071BC"/>
</g>
<g opacity="0.1">
<path opacity="0.1" d="M902.341 978.389L848.918 1009.3L795.139 978.389L848.561 947.301L902.341 978.389Z" fill="#0071BC"/>
</g>
<g opacity="0.1">
<path opacity="0.1" d="M702.408 905.492L667.925 925.503L633.441 905.492L667.746 885.481L702.408 905.492Z" fill="#0071BC"/>
</g>
<g filter="url(#filter0_f_24_145)">
<path d="M1188.73 761.881C1207 772.427 1207.02 798.804 1188.75 809.368L937.376 955.459C917.915 966.769 893.891 966.805 874.397 955.554L621.114 809.368C602.813 798.785 602.784 772.375 621.063 761.753L872.313 615.745C891.771 604.438 915.79 604.4 935.283 615.647L1188.73 761.881Z" fill="url(#paint0_linear_24_145)"/>
</g>
<path d="M1229.84 704.597L1229.66 719.069L905.914 907.209V892.736L1229.84 704.597Z" fill="url(#paint1_linear_24_145)"/>
<path d="M905.914 892.736V907.209L580.02 719.069V704.597L905.914 892.736Z" fill="url(#paint2_linear_24_145)"/>
<path d="M1229.84 704.597L905.914 892.736L580.02 704.597L903.77 516.457L1229.84 704.597Z" fill="#000F2D"/>
<g filter="url(#filter1_b_24_145)">
<path d="M1172.49 704.597L905.735 859.504L637.373 704.597L904.127 549.69L1172.49 704.597Z" fill="url(#paint3_linear_24_145)" fill-opacity="0.3"/>
</g>
<g filter="url(#filter2_b_24_145)">
<path d="M1053.97 797.951C1054.45 798.228 1055.04 798.233 1055.53 797.964C1056.6 797.368 1056.61 795.832 1055.55 795.218L1042.66 787.768C1042.18 787.49 1041.59 787.485 1041.1 787.755C1040.03 788.35 1040.02 789.887 1041.08 790.501L1053.97 797.951ZM1092.21 775.974C1092.69 776.252 1093.28 776.257 1093.76 775.987C1094.84 775.392 1094.85 773.855 1093.79 773.242L1080.89 765.791C1080.41 765.514 1079.82 765.509 1079.34 765.778C1078.26 766.374 1078.25 767.911 1079.31 768.524L1092.21 775.974ZM1101.68 770.436C1102.16 770.713 1102.75 770.718 1103.23 770.449C1104.31 769.853 1104.32 768.316 1103.26 767.703L1090.36 760.253C1089.88 759.975 1089.29 759.97 1088.81 760.24C1087.73 760.835 1087.72 762.372 1088.78 762.985L1101.68 770.436ZM1063.62 792.412C1064.1 792.689 1064.69 792.694 1065.18 792.425C1066.25 791.83 1066.26 790.293 1065.2 789.679L1052.3 782.229C1051.82 781.952 1051.23 781.947 1050.75 782.216C1049.68 782.811 1049.66 784.348 1050.73 784.962L1063.62 792.412ZM1111.33 764.897C1111.81 765.174 1112.4 765.179 1112.88 764.91C1113.95 764.314 1113.97 762.778 1112.9 762.164L1100.01 754.714C1099.53 754.436 1098.94 754.431 1098.45 754.701C1097.38 755.296 1097.37 756.833 1098.43 757.447L1111.33 764.897ZM1073.09 787.052C1073.57 787.329 1074.16 787.334 1074.65 787.065C1075.72 786.47 1075.73 784.933 1074.67 784.319L1061.77 776.869C1061.29 776.592 1060.7 776.587 1060.22 776.856C1059.15 777.451 1059.13 778.988 1060.2 779.602L1073.09 787.052ZM1082.56 781.513C1083.04 781.791 1083.63 781.796 1084.12 781.526C1085.19 780.931 1085.2 779.394 1084.14 778.781L1071.24 771.33C1070.76 771.053 1070.17 771.048 1069.69 771.317C1068.62 771.913 1068.6 773.449 1069.67 774.063L1082.56 781.513ZM1149.56 742.92C1150.04 743.198 1150.63 743.203 1151.12 742.934C1152.19 742.338 1152.2 740.801 1151.14 740.188L1138.25 732.737C1137.76 732.46 1137.17 732.455 1136.69 732.724C1135.62 733.32 1135.6 734.857 1136.67 735.47L1149.56 742.92ZM1159.03 737.382C1159.51 737.659 1160.1 737.664 1160.59 737.395C1161.66 736.799 1161.67 735.262 1160.61 734.649L1147.71 727.199C1147.23 726.921 1146.64 726.916 1146.16 727.186C1145.09 727.781 1145.07 729.318 1146.14 729.931L1159.03 737.382ZM1120.8 759.358C1121.28 759.636 1121.87 759.64 1122.35 759.371C1123.42 758.776 1123.44 757.239 1122.37 756.625L1109.48 749.175C1109 748.898 1108.41 748.893 1107.92 749.162C1106.85 749.757 1106.84 751.294 1107.9 751.908L1120.8 759.358ZM1168.68 731.843C1169.16 732.12 1169.75 732.125 1170.23 731.856C1171.31 731.26 1171.32 729.724 1170.26 729.11L1157.36 721.66C1156.88 721.382 1156.29 721.377 1155.81 721.647C1154.74 722.242 1154.72 723.779 1155.78 724.393L1168.68 731.843ZM1139.91 748.281C1140.39 748.558 1140.98 748.563 1141.47 748.294C1142.54 747.698 1142.55 746.161 1141.49 745.548L1128.6 738.098C1128.12 737.82 1127.53 737.815 1127.04 738.084C1125.97 738.68 1125.96 740.217 1127.02 740.83L1139.91 748.281ZM1130.44 753.819C1130.92 754.097 1131.51 754.102 1132 753.832C1133.07 753.237 1133.08 751.7 1132.02 751.087L1119.13 743.636C1118.65 743.359 1118.06 743.354 1117.57 743.623C1116.5 744.219 1116.49 745.756 1117.55 746.369L1130.44 753.819ZM948.915 858.699C949.395 858.976 949.985 858.981 950.47 858.712C951.542 858.116 951.555 856.579 950.493 855.966L937.599 848.516C937.118 848.238 936.528 848.233 936.043 848.503C934.971 849.098 934.958 850.635 936.02 851.248L948.915 858.699ZM958.384 853.16C958.864 853.437 959.455 853.442 959.94 853.173C961.012 852.577 961.025 851.041 959.963 850.427L947.068 842.977C946.588 842.699 945.997 842.694 945.512 842.964C944.441 843.559 944.428 845.096 945.489 845.71L958.384 853.16ZM1187.8 720.765C1188.28 721.043 1188.87 721.048 1189.35 720.778C1190.42 720.183 1190.44 718.646 1189.38 718.033L1176.48 710.582C1176 710.305 1175.41 710.3 1174.92 710.569C1173.85 711.165 1173.84 712.702 1174.9 713.315L1187.8 720.765ZM1044.5 803.49C1044.98 803.767 1045.57 803.772 1046.06 803.503C1047.13 802.907 1047.14 801.37 1046.08 800.757L1033.19 793.307C1032.71 793.029 1032.12 793.024 1031.63 793.294C1030.56 793.889 1030.55 795.426 1031.61 796.039L1044.5 803.49ZM968.032 847.621C968.513 847.899 969.103 847.904 969.588 847.634C970.66 847.039 970.673 845.502 969.611 844.888L956.716 837.438C956.236 837.161 955.645 837.156 955.161 837.425C954.089 838.021 954.076 839.557 955.138 840.171L968.032 847.621ZM939.266 864.237C939.747 864.515 940.337 864.52 940.822 864.251C941.894 863.655 941.907 862.118 940.845 861.505L927.95 854.054C927.47 853.777 926.88 853.772 926.395 854.041C925.323 854.637 925.31 856.174 926.372 856.787L939.266 864.237ZM929.797 869.776C930.277 870.054 930.868 870.059 931.353 869.789C932.424 869.194 932.437 867.657 931.376 867.044L918.481 859.593C918.001 859.316 917.41 859.311 916.925 859.58C915.853 860.176 915.84 861.712 916.902 862.326L929.797 869.776ZM977.502 842.082C977.982 842.36 978.573 842.365 979.058 842.095C980.129 841.5 980.142 839.963 979.081 839.35L966.186 831.899C965.706 831.622 965.115 831.617 964.63 831.886C963.558 832.482 963.545 834.019 964.607 834.632L977.502 842.082ZM1025.39 814.567C1025.87 814.845 1026.46 814.85 1026.94 814.58C1028.01 813.985 1028.03 812.448 1026.96 811.835L1014.07 804.384C1013.59 804.107 1013 804.102 1012.51 804.371C1011.44 804.967 1011.43 806.503 1012.49 807.117L1025.39 814.567ZM987.15 836.544C987.63 836.821 988.221 836.826 988.706 836.557C989.778 835.961 989.791 834.424 988.729 833.811L975.834 826.361C975.354 826.083 974.763 826.078 974.278 826.348C973.207 826.943 973.194 828.48 974.255 829.093L987.15 836.544ZM1015.74 820.106C1016.22 820.383 1016.81 820.388 1017.29 820.119C1018.36 819.524 1018.38 817.987 1017.32 817.373L1004.42 809.923C1003.94 809.646 1003.35 809.641 1002.87 809.91C1001.79 810.505 1001.78 812.042 1002.84 812.656L1015.74 820.106ZM1034.85 809.028C1035.34 809.306 1035.93 809.311 1036.41 809.041C1037.48 808.446 1037.5 806.909 1036.43 806.296L1023.54 798.845C1023.06 798.568 1022.47 798.563 1021.98 798.832C1020.91 799.428 1020.9 800.965 1021.96 801.578L1034.85 809.028ZM996.62 831.183C997.1 831.461 997.69 831.466 998.175 831.197C999.247 830.601 999.26 829.064 998.198 828.451L985.304 821C984.823 820.723 984.233 820.718 983.748 820.987C982.676 821.583 982.663 823.12 983.725 823.733L996.62 831.183ZM1006.27 825.645C1006.75 825.922 1007.34 825.927 1007.82 825.658C1008.9 825.062 1008.91 823.525 1007.85 822.912L994.952 815.462C994.472 815.184 993.881 815.179 993.396 815.449C992.324 816.044 992.311 817.581 993.373 818.194L1006.27 825.645ZM1178.15 726.304C1178.63 726.582 1179.22 726.587 1179.7 726.317C1180.78 725.722 1180.79 724.185 1179.73 723.571L1166.83 716.121C1166.35 715.844 1165.76 715.839 1165.28 716.108C1164.2 716.704 1164.19 718.24 1165.25 718.854L1178.15 726.304ZM816.646 815.27C816.162 815.001 815.571 815.006 815.091 815.283L802.196 822.733C801.134 823.347 801.147 824.884 802.219 825.479C802.704 825.748 803.294 825.743 803.775 825.466L816.669 818.016C817.731 817.402 817.718 815.865 816.646 815.27ZM806.998 809.731C806.513 809.462 805.923 809.467 805.442 809.744L792.548 817.195C791.486 817.808 791.499 819.345 792.571 819.94C793.056 820.21 793.646 820.205 794.127 819.927L807.021 812.477C808.083 811.864 808.07 810.327 806.998 809.731ZM903.495 865.395C902.443 864.842 901.181 864.867 900.152 865.461L888.136 872.404C887.075 873.017 887.087 874.554 888.159 875.149C888.644 875.419 889.235 875.414 889.715 875.136L896.903 870.983C901.926 868.081 908.116 868.081 913.14 870.983L920.327 875.136C920.808 875.414 921.398 875.419 921.883 875.149C922.955 874.554 922.968 873.017 921.906 872.404L909.798 865.408C908.833 864.85 907.644 864.855 906.684 865.42C905.761 865.963 904.624 865.989 903.676 865.491L903.495 865.395ZM797.529 804.192C797.044 803.923 796.453 803.928 795.973 804.206L783.078 811.656C782.017 812.269 782.029 813.806 783.101 814.402C783.586 814.671 784.177 814.666 784.657 814.388L797.552 806.938C798.613 806.325 798.6 804.788 797.529 804.192ZM835.764 826.348C835.279 826.078 834.689 826.083 834.208 826.361L821.314 833.811C820.252 834.424 820.265 835.961 821.337 836.557C821.822 836.826 822.412 836.821 822.892 836.544L835.787 829.093C836.849 828.48 836.836 826.943 835.764 826.348ZM778.411 793.294C777.926 793.024 777.335 793.029 776.855 793.307L763.96 800.757C762.899 801.37 762.912 802.907 763.984 803.503C764.468 803.772 765.059 803.767 765.539 803.49L778.434 796.039C779.496 795.426 779.483 793.889 778.411 793.294ZM787.88 798.832C787.396 798.563 786.805 798.568 786.325 798.845L773.43 806.296C772.368 806.909 772.381 808.446 773.453 809.041C773.938 809.311 774.529 809.306 775.009 809.028L787.904 801.578C788.965 800.965 788.952 799.428 787.88 798.832ZM864.351 842.964C863.866 842.694 863.276 842.699 862.796 842.977L849.901 850.427C848.839 851.041 848.852 852.578 849.924 853.173C850.409 853.442 850.999 853.437 851.48 853.16L864.374 845.71C865.436 845.096 865.423 843.559 864.351 842.964ZM883.469 853.863C882.984 853.593 882.393 853.598 881.913 853.876L869.018 861.326C867.957 861.94 867.97 863.476 869.042 864.072C869.526 864.341 870.117 864.336 870.597 864.059L883.492 856.608C884.554 855.995 884.541 854.458 883.469 853.863ZM893.117 859.401C892.632 859.132 892.042 859.137 891.561 859.415L878.667 866.865C877.605 867.478 877.618 869.015 878.69 869.611C879.175 869.88 879.765 869.875 880.246 869.598L893.14 862.147C894.202 861.534 894.189 859.997 893.117 859.401ZM845.234 831.886C844.749 831.617 844.158 831.622 843.678 831.899L830.783 839.35C829.721 839.963 829.734 841.5 830.806 842.095C831.291 842.365 831.882 842.36 832.362 842.082L845.257 834.632C846.318 834.019 846.305 832.482 845.234 831.886ZM874 848.324C873.515 848.055 872.924 848.06 872.444 848.337L859.549 855.787C858.487 856.401 858.5 857.938 859.572 858.533C860.057 858.802 860.648 858.797 861.128 858.52L874.023 851.07C875.084 850.456 875.071 848.919 874 848.324ZM854.882 837.425C854.397 837.156 853.806 837.161 853.326 837.438L840.431 844.888C839.37 845.502 839.383 847.039 840.454 847.634C840.939 847.904 841.53 847.899 842.01 847.621L854.905 840.171C855.967 839.557 855.954 838.021 854.882 837.425ZM768.763 787.755C768.278 787.485 767.687 787.49 767.207 787.768L754.312 795.218C753.251 795.832 753.264 797.368 754.335 797.964C754.82 798.233 755.411 798.228 755.891 797.951L768.786 790.501C769.848 789.887 769.835 788.35 768.763 787.755ZM826.116 820.809C825.631 820.539 825.04 820.544 824.56 820.822L811.665 828.272C810.604 828.886 810.617 830.422 811.688 831.018C812.173 831.287 812.764 831.282 813.244 831.005L826.139 823.555C827.201 822.941 827.188 821.404 826.116 820.809ZM692.292 743.623C691.807 743.354 691.216 743.359 690.736 743.636L677.841 751.087C676.78 751.7 676.793 753.237 677.865 753.832C678.349 754.102 678.94 754.097 679.42 753.819L692.315 746.369C693.377 745.756 693.364 744.219 692.292 743.623ZM682.822 738.084C682.338 737.815 681.747 737.82 681.267 738.098L668.372 745.548C667.31 746.161 667.323 747.698 668.395 748.294C668.88 748.563 669.471 748.558 669.951 748.281L682.846 740.83C683.907 740.217 683.894 738.68 682.822 738.084ZM759.293 782.216C758.808 781.947 758.218 781.952 757.738 782.229L744.843 789.679C743.781 790.293 743.794 791.83 744.866 792.425C745.351 792.694 745.941 792.689 746.422 792.412L759.316 784.962C760.378 784.348 760.365 782.811 759.293 782.216ZM673.353 732.546C672.868 732.276 672.277 732.281 671.797 732.559L658.902 740.009C657.841 740.622 657.854 742.159 658.926 742.755C659.41 743.024 660.001 743.019 660.481 742.742L673.376 735.291C674.438 734.678 674.425 733.141 673.353 732.546ZM635.118 710.569C634.633 710.3 634.042 710.305 633.562 710.582L620.667 718.033C619.605 718.646 619.618 720.183 620.69 720.778C621.175 721.048 621.766 721.043 622.246 720.765L635.141 713.315C636.202 712.702 636.189 711.165 635.118 710.569ZM644.587 715.929C644.102 715.66 643.511 715.665 643.031 715.942L630.136 723.393C629.075 724.006 629.088 725.543 630.16 726.139C630.644 726.408 631.235 726.403 631.715 726.125L644.61 718.675C645.672 718.062 645.659 716.525 644.587 715.929ZM654.235 721.468C653.75 721.199 653.16 721.204 652.679 721.481L639.785 728.932C638.723 729.545 638.736 731.082 639.808 731.677C640.293 731.947 640.883 731.942 641.364 731.664L654.258 724.214C655.32 723.6 655.307 722.064 654.235 721.468ZM740.176 771.138C739.691 770.869 739.1 770.874 738.62 771.152L725.725 778.602C724.663 779.215 724.676 780.752 725.748 781.348C726.233 781.617 726.824 781.612 727.304 781.334L740.199 773.884C741.26 773.271 741.247 771.734 740.176 771.138ZM730.527 765.6C730.043 765.33 729.452 765.335 728.972 765.613L716.077 773.063C715.015 773.676 715.028 775.213 716.1 775.809C716.585 776.078 717.175 776.073 717.656 775.796L730.55 768.345C731.612 767.732 731.599 766.195 730.527 765.6ZM701.94 749.162C701.455 748.893 700.865 748.898 700.384 749.175L687.49 756.625C686.428 757.239 686.441 758.776 687.513 759.371C687.998 759.64 688.588 759.636 689.068 759.358L701.963 751.908C703.025 751.294 703.012 749.757 701.94 749.162ZM749.645 776.677C749.16 776.408 748.57 776.413 748.089 776.69L735.195 784.141C734.133 784.754 734.146 786.291 735.218 786.886C735.702 787.156 736.293 787.151 736.773 786.873L749.668 779.423C750.73 778.81 750.717 777.273 749.645 776.677ZM711.41 754.701C710.925 754.431 710.334 754.436 709.854 754.714L696.959 762.164C695.898 762.778 695.91 764.314 696.982 764.91C697.467 765.179 698.058 765.174 698.538 764.897L711.433 757.447C712.494 756.833 712.481 755.296 711.41 754.701ZM721.058 760.061C720.573 759.792 719.982 759.797 719.502 760.074L706.607 767.524C705.546 768.138 705.559 769.675 706.63 770.27C707.115 770.539 707.706 770.534 708.186 770.257L721.081 762.807C722.143 762.193 722.13 760.656 721.058 760.061ZM663.705 727.007C663.22 726.738 662.629 726.743 662.149 727.02L649.254 734.47C648.193 735.084 648.205 736.621 649.277 737.216C649.762 737.485 650.353 737.48 650.833 737.203L663.728 729.753C664.789 729.139 664.777 727.602 663.705 727.007ZM633.562 698.61C634.042 698.888 634.633 698.893 635.118 698.623C636.189 698.028 636.202 696.491 635.141 695.878L622.246 688.427C621.766 688.15 621.175 688.145 620.69 688.414C619.618 689.01 619.605 690.547 620.667 691.16L633.562 698.61ZM652.679 687.711C653.16 687.989 653.75 687.994 654.235 687.724C655.307 687.129 655.32 685.592 654.258 684.979L641.364 677.528C640.883 677.251 640.293 677.246 639.808 677.515C638.736 678.111 638.723 679.648 639.785 680.261L652.679 687.711ZM853.326 571.754C853.806 572.032 854.397 572.037 854.882 571.767C855.954 571.172 855.967 569.635 854.905 569.022L842.01 561.571C841.53 561.294 840.939 561.289 840.454 561.558C839.383 562.154 839.37 563.691 840.431 564.304L853.326 571.754ZM843.678 577.293C844.158 577.571 844.749 577.576 845.234 577.306C846.305 576.711 846.318 575.174 845.257 574.561L832.362 567.11C831.882 566.833 831.291 566.828 830.806 567.097C829.734 567.693 829.721 569.229 830.783 569.843L843.678 577.293ZM643.031 693.071C643.511 693.349 644.102 693.354 644.587 693.085C645.659 692.489 645.672 690.952 644.61 690.339L631.715 682.888C631.235 682.611 630.644 682.606 630.16 682.875C629.088 683.471 629.075 685.008 630.136 685.621L643.031 693.071ZM862.796 566.216C863.276 566.493 863.866 566.498 864.351 566.229C865.423 565.633 865.436 564.096 864.374 563.483L851.48 556.033C850.999 555.755 850.409 555.75 849.924 556.02C848.852 556.615 848.839 558.152 849.901 558.765L862.796 566.216ZM662.149 682.173C662.629 682.45 663.22 682.455 663.705 682.186C664.777 681.59 664.789 680.053 663.728 679.44L650.833 671.99C650.353 671.712 649.762 671.707 649.277 671.977C648.205 672.572 648.193 674.109 649.254 674.722L662.149 682.173ZM671.797 676.634C672.277 676.911 672.868 676.916 673.353 676.647C674.425 676.051 674.438 674.515 673.376 673.901L660.481 666.451C660.001 666.173 659.41 666.168 658.926 666.438C657.854 667.033 657.841 668.57 658.902 669.183L671.797 676.634ZM824.56 588.371C825.04 588.648 825.631 588.653 826.116 588.384C827.188 587.788 827.201 586.251 826.139 585.638L813.244 578.188C812.764 577.91 812.173 577.905 811.688 578.175C810.617 578.77 810.604 580.307 811.665 580.92L824.56 588.371ZM795.973 604.808C796.453 605.086 797.044 605.091 797.529 604.821C798.6 604.226 798.613 602.689 797.552 602.076L784.657 594.625C784.177 594.348 783.586 594.343 783.101 594.612C782.029 595.208 782.017 596.745 783.078 597.358L795.973 604.808ZM681.267 671.095C681.747 671.372 682.338 671.377 682.822 671.108C683.894 670.513 683.907 668.976 682.846 668.362L669.951 660.912C669.471 660.635 668.88 660.63 668.395 660.899C667.323 661.494 667.31 663.031 668.372 663.645L681.267 671.095ZM624.688 704.596L611.019 712.494C609.957 713.107 609.97 714.644 611.042 715.24C611.527 715.509 612.117 715.504 612.598 715.227L624.718 708.224C626.121 707.413 626.104 705.383 624.688 704.596C626.104 703.81 626.121 701.779 624.718 700.969L612.598 693.966C612.117 693.689 611.527 693.684 611.042 693.953C609.97 694.548 609.957 696.085 611.019 696.699L624.688 704.596ZM786.325 610.347C786.805 610.625 787.396 610.63 787.88 610.36C788.952 609.765 788.965 608.228 787.904 607.615L775.009 600.164C774.529 599.887 773.938 599.882 773.453 600.151C772.381 600.747 772.368 602.283 773.43 602.897L786.325 610.347ZM805.442 599.448C805.923 599.726 806.513 599.731 806.998 599.461C808.07 598.866 808.083 597.329 807.021 596.716L794.127 589.265C793.646 588.988 793.056 588.983 792.571 589.252C791.499 589.848 791.486 591.385 792.548 591.998L805.442 599.448ZM767.207 621.425C767.687 621.702 768.278 621.707 768.763 621.438C769.835 620.842 769.848 619.305 768.786 618.692L755.891 611.242C755.411 610.964 754.82 610.959 754.335 611.229C753.264 611.824 753.251 613.361 754.312 613.974L767.207 621.425ZM834.208 582.832C834.689 583.109 835.279 583.114 835.764 582.845C836.836 582.25 836.849 580.713 835.787 580.099L822.892 572.649C822.412 572.372 821.822 572.367 821.337 572.636C820.265 573.231 820.252 574.768 821.314 575.382L834.208 582.832ZM776.855 615.886C777.335 616.163 777.926 616.168 778.411 615.899C779.483 615.304 779.496 613.767 778.434 613.153L765.539 605.703C765.059 605.425 764.468 605.421 763.984 605.69C762.912 606.285 762.899 607.822 763.96 608.436L776.855 615.886ZM700.384 660.017C700.865 660.295 701.455 660.3 701.94 660.031C703.012 659.435 703.025 657.898 701.963 657.285L689.068 649.835C688.588 649.557 687.998 649.552 687.513 649.821C686.441 650.417 686.428 651.954 687.49 652.567L700.384 660.017ZM709.854 654.479C710.334 654.756 710.925 654.761 711.41 654.492C712.481 653.896 712.494 652.359 711.433 651.746L698.538 644.296C698.058 644.018 697.467 644.013 696.982 644.283C695.91 644.878 695.897 646.415 696.959 647.028L709.854 654.479ZM719.502 648.94C719.982 649.217 720.573 649.222 721.058 648.953C722.13 648.358 722.143 646.821 721.081 646.207L708.186 638.757C707.706 638.479 707.115 638.474 706.63 638.744C705.559 639.339 705.546 640.876 706.607 641.49L719.502 648.94ZM881.913 555.317C882.393 555.594 882.984 555.599 883.469 555.33C884.541 554.734 884.554 553.198 883.492 552.584L870.597 545.134C870.117 544.856 869.526 544.851 869.042 545.121C867.97 545.716 867.957 547.253 869.018 547.866L881.913 555.317ZM748.089 632.502C748.57 632.78 749.16 632.785 749.645 632.515C750.717 631.92 750.73 630.383 749.668 629.77L736.773 622.319C736.293 622.042 735.702 622.037 735.218 622.306C734.146 622.902 734.133 624.439 735.195 625.052L748.089 632.502ZM728.972 643.58C729.452 643.857 730.043 643.862 730.527 643.593C731.599 642.997 731.612 641.461 730.55 640.847L717.656 633.397C717.175 633.119 716.585 633.114 716.1 633.384C715.028 633.979 715.015 635.516 716.077 636.129L728.972 643.58ZM891.561 549.778C892.042 550.055 892.632 550.06 893.117 549.791C894.189 549.196 894.202 547.659 893.14 547.045L880.246 539.595C879.765 539.318 879.175 539.313 878.69 539.582C877.618 540.177 877.605 541.714 878.667 542.328L891.561 549.778ZM872.444 560.677C872.924 560.954 873.515 560.959 874 560.69C875.071 560.095 875.084 558.558 874.023 557.944L861.128 550.494C860.648 550.216 860.057 550.211 859.572 550.481C858.5 551.076 858.487 552.613 859.549 553.227L872.444 560.677ZM738.62 638.041C739.1 638.318 739.691 638.323 740.176 638.054C741.247 637.459 741.26 635.922 740.199 635.308L727.304 627.858C726.824 627.581 726.233 627.576 725.748 627.845C724.676 628.44 724.663 629.977 725.725 630.591L738.62 638.041ZM690.736 665.556C691.216 665.834 691.807 665.839 692.292 665.569C693.364 664.974 693.377 663.437 692.315 662.824L679.42 655.373C678.94 655.096 678.349 655.091 677.865 655.36C676.793 655.956 676.78 657.493 677.841 658.106L690.736 665.556ZM757.738 626.964C758.218 627.241 758.808 627.246 759.293 626.977C760.365 626.381 760.378 624.844 759.316 624.231L746.422 616.781C745.941 616.503 745.351 616.498 744.866 616.767C743.794 617.363 743.781 618.9 744.843 619.513L757.738 626.964ZM815.091 593.91C815.571 594.187 816.162 594.192 816.646 593.923C817.718 593.327 817.731 591.79 816.669 591.177L803.775 583.727C803.294 583.449 802.704 583.444 802.219 583.713C801.147 584.309 801.134 585.846 802.196 586.459L815.091 593.91ZM1107.92 660.031C1108.41 660.3 1109 660.295 1109.48 660.017L1122.37 652.567C1123.44 651.954 1123.42 650.417 1122.35 649.821C1121.87 649.552 1121.28 649.557 1120.8 649.835L1107.9 657.285C1106.84 657.898 1106.85 659.435 1107.92 660.031ZM1185 704.596C1183.64 705.394 1183.65 707.359 1185.01 708.146L1197.27 715.228C1197.75 715.505 1198.34 715.51 1198.82 715.241C1199.89 714.647 1199.9 713.111 1198.84 712.504L1185 704.596L1198.84 696.689C1199.9 696.082 1199.89 694.546 1198.82 693.951C1198.34 693.683 1197.75 693.688 1197.27 693.964L1185.01 701.047C1183.65 701.834 1183.64 703.798 1185 704.596ZM1041.1 621.438C1041.59 621.707 1042.18 621.702 1042.66 621.425L1055.55 613.974C1056.61 613.361 1056.6 611.824 1055.53 611.229C1055.04 610.959 1054.45 610.964 1053.97 611.242L1041.08 618.692C1040.02 619.305 1040.03 620.842 1041.1 621.438ZM1174.75 698.623C1175.23 698.893 1175.82 698.888 1176.3 698.61L1189.2 691.16C1190.26 690.547 1190.25 689.01 1189.17 688.414C1188.69 688.145 1188.1 688.15 1187.62 688.427L1174.72 695.878C1173.66 696.491 1173.67 698.028 1174.75 698.623ZM1165.28 693.085C1165.76 693.354 1166.35 693.349 1166.83 693.071L1179.73 685.621C1180.79 685.008 1180.78 683.471 1179.7 682.875C1179.22 682.606 1178.63 682.611 1178.15 682.888L1165.25 690.339C1164.19 690.952 1164.2 692.489 1165.28 693.085ZM1127.04 671.108C1127.53 671.377 1128.12 671.372 1128.6 671.095L1141.49 663.645C1142.55 663.031 1142.54 661.494 1141.47 660.899C1140.98 660.63 1140.39 660.635 1139.91 660.912L1127.02 668.362C1125.96 668.976 1125.97 670.513 1127.04 671.108ZM1136.51 676.647C1137 676.916 1137.59 676.911 1138.07 676.634L1150.96 669.183C1152.02 668.57 1152.01 667.033 1150.94 666.438C1150.45 666.168 1149.86 666.173 1149.38 666.451L1136.49 673.901C1135.43 674.515 1135.44 676.051 1136.51 676.647ZM1155.63 687.724C1156.11 687.994 1156.7 687.989 1157.18 687.711L1170.08 680.261C1171.14 679.648 1171.13 678.111 1170.06 677.515C1169.57 677.246 1168.98 677.251 1168.5 677.528L1155.61 684.979C1154.54 685.592 1154.56 687.129 1155.63 687.724ZM1117.39 665.569C1117.88 665.839 1118.47 665.834 1118.95 665.556L1131.84 658.106C1132.91 657.493 1132.89 655.956 1131.82 655.36C1131.34 655.091 1130.74 655.096 1130.26 655.373L1117.37 662.824C1116.31 663.437 1116.32 664.974 1117.39 665.569ZM1146.16 682.186C1146.64 682.455 1147.23 682.45 1147.71 682.173L1160.61 674.722C1161.67 674.109 1161.66 672.572 1160.59 671.977C1160.1 671.707 1159.51 671.712 1159.03 671.99L1146.14 679.44C1145.07 680.053 1145.09 681.59 1146.16 682.186ZM1098.28 654.492C1098.76 654.761 1099.35 654.756 1099.83 654.479L1112.73 647.028C1113.79 646.415 1113.77 644.878 1112.7 644.283C1112.22 644.013 1111.63 644.018 1111.15 644.296L1098.25 651.746C1097.19 652.359 1097.2 653.896 1098.28 654.492ZM983.748 588.384C984.233 588.653 984.823 588.648 985.304 588.371L998.198 580.92C999.26 580.307 999.247 578.77 998.175 578.175C997.69 577.905 997.1 577.91 996.62 578.188L983.725 585.638C982.663 586.251 982.676 587.788 983.748 588.384ZM993.217 593.923C993.702 594.192 994.293 594.187 994.773 593.91L1007.67 586.459C1008.73 585.846 1008.72 584.309 1007.64 583.713C1007.16 583.444 1006.57 583.449 1006.09 583.727L993.194 591.177C992.133 591.79 992.146 593.327 993.217 593.923ZM954.982 571.767C955.467 572.037 956.057 572.032 956.538 571.754L969.432 564.304C970.494 563.691 970.481 562.154 969.409 561.558C968.924 561.289 968.334 561.294 967.854 561.571L954.959 569.022C953.897 569.635 953.91 571.172 954.982 571.767ZM964.63 577.306C965.115 577.576 965.706 577.571 966.186 577.293L979.081 569.843C980.142 569.229 980.129 567.693 979.058 567.097C978.573 566.828 977.982 566.833 977.502 567.11L964.607 574.561C963.545 575.174 963.558 576.711 964.63 577.306ZM974.1 582.845C974.584 583.114 975.175 583.109 975.655 582.832L988.55 575.382C989.612 574.768 989.599 573.231 988.527 572.636C988.042 572.367 987.452 572.372 986.971 572.649L974.077 580.099C973.015 580.713 973.028 582.25 974.1 582.845ZM1031.45 615.899C1031.94 616.168 1032.53 616.163 1033.01 615.886L1045.9 608.436C1046.96 607.822 1046.95 606.285 1045.88 605.69C1045.4 605.421 1044.8 605.425 1044.32 605.703L1031.43 613.153C1030.37 613.767 1030.38 615.304 1031.45 615.899ZM1021.98 610.36C1022.47 610.63 1023.06 610.625 1023.54 610.347L1036.43 602.897C1037.5 602.284 1037.48 600.747 1036.41 600.151C1035.93 599.882 1035.34 599.887 1034.85 600.164L1021.96 607.614C1020.9 608.228 1020.91 609.765 1021.98 610.36ZM1012.34 604.821C1012.82 605.091 1013.41 605.086 1013.89 604.808L1026.79 597.358C1027.85 596.745 1027.83 595.208 1026.76 594.612C1026.28 594.343 1025.69 594.348 1025.21 594.625L1012.31 602.076C1011.25 602.689 1011.26 604.226 1012.34 604.821ZM1002.87 599.461C1003.35 599.731 1003.94 599.726 1004.42 599.448L1017.32 591.998C1018.38 591.385 1018.36 589.848 1017.29 589.252C1016.81 588.983 1016.22 588.988 1015.74 589.265L1002.84 596.716C1001.78 597.329 1001.79 598.866 1002.87 599.461ZM1079.16 643.593C1079.64 643.862 1080.23 643.857 1080.71 643.58L1093.61 636.13C1094.67 635.516 1094.66 633.979 1093.59 633.384C1093.1 633.114 1092.51 633.119 1092.03 633.397L1079.13 640.847C1078.07 641.461 1078.09 642.997 1079.16 643.593ZM945.512 566.229C945.997 566.498 946.588 566.493 947.068 566.216L959.963 558.765C961.025 558.152 961.012 556.615 959.94 556.02C959.455 555.75 958.864 555.755 958.384 556.033L945.489 563.483C944.428 564.096 944.441 565.633 945.512 566.229ZM1060.04 632.515C1060.52 632.785 1061.12 632.78 1061.6 632.502L1074.49 625.052C1075.55 624.439 1075.54 622.902 1074.47 622.306C1073.98 622.037 1073.39 622.042 1072.91 622.319L1060.02 629.77C1058.96 630.383 1058.97 631.92 1060.04 632.515ZM1088.81 648.953C1089.29 649.222 1089.88 649.217 1090.36 648.94L1103.26 641.49C1104.32 640.876 1104.31 639.339 1103.23 638.744C1102.75 638.474 1102.16 638.479 1101.68 638.757L1088.78 646.207C1087.72 646.821 1087.73 648.358 1088.81 648.953ZM1050.57 626.977C1051.06 627.246 1051.65 627.241 1052.13 626.964L1065.02 619.513C1066.08 618.9 1066.07 617.363 1065 616.767C1064.51 616.498 1063.92 616.503 1063.44 616.781L1050.55 624.231C1049.49 624.844 1049.5 626.381 1050.57 626.977ZM1069.69 638.054C1070.17 638.323 1070.76 638.318 1071.24 638.041L1084.14 630.591C1085.2 629.977 1085.19 628.44 1084.12 627.845C1083.63 627.576 1083.04 627.581 1082.56 627.858L1069.67 635.308C1068.6 635.922 1068.62 637.459 1069.69 638.054ZM904.843 542.721L889.536 533.878C889.056 533.6 888.465 533.595 887.981 533.865C886.909 534.46 886.896 535.997 887.958 536.61L898.441 542.667C900.417 543.809 902.848 543.829 904.843 542.721C906.707 543.927 909.09 543.987 911.012 542.877L921.546 536.79C922.609 536.176 922.596 534.638 921.523 534.042C921.04 533.773 920.451 533.777 919.971 534.052L904.843 542.721ZM935.864 560.69C936.349 560.959 936.94 560.954 937.42 560.677L950.315 553.227C951.376 552.613 951.363 551.076 950.292 550.481C949.807 550.211 949.216 550.216 948.736 550.494L935.841 557.944C934.779 558.558 934.792 560.095 935.864 560.69ZM926.395 555.33C926.88 555.599 927.47 555.594 927.95 555.317L940.845 547.866C941.907 547.253 941.894 545.716 940.822 545.121C940.337 544.851 939.747 544.856 939.266 545.134L926.372 552.584C925.31 553.198 925.323 554.734 926.395 555.33ZM916.747 549.791C917.231 550.06 917.822 550.055 918.302 549.778L931.197 542.328C932.259 541.714 932.246 540.177 931.174 539.582C930.689 539.313 930.098 539.318 929.618 539.595L916.723 547.045C915.662 547.659 915.675 549.196 916.747 549.791Z" fill="url(#paint4_linear_24_145)" fill-opacity="0.6"/>
</g>
<path d="M1052.42 688.765L1052.24 726.643L905.378 812.048V774.17L1052.42 688.765Z" fill="url(#paint5_linear_24_145)"/>
<path d="M905.378 774.17V812.048L757.439 726.643V688.765L905.378 774.17Z" fill="url(#paint6_linear_24_145)"/>
<path d="M1052.42 688.765L905.378 774.17L757.439 688.765L904.485 603.361L1052.42 688.765Z" fill="url(#paint7_linear_24_145)"/>
<path d="M760.655 688.765L904.485 605.148L1049.39 688.765L905.378 772.383L760.655 688.765Z" fill="url(#paint8_linear_24_145)"/>
<path d="M813.005 688.765L904.663 635.522L996.857 688.765L905.199 742.009L813.005 688.765Z" stroke="#0194FE" stroke-width="2.67365" stroke-miterlimit="10"/>
<path d="M818.187 685.192L821.939 683.048L807.824 674.829L804.072 676.973L818.187 685.192ZM925.389 747.012L929.141 744.868L915.026 736.649L911.274 738.972L925.389 747.012ZM940.754 738.257L944.507 736.113L930.392 727.894L926.64 730.038L940.754 738.257ZM956.12 729.323L959.872 727.179L945.757 718.96L942.005 721.105L956.12 729.323ZM833.552 676.258L837.304 674.114L823.19 665.895L819.437 668.039L833.552 676.258ZM838.555 720.569L852.67 712.35L848.918 710.206L834.803 718.424L838.555 720.569ZM884.473 747.012L898.588 738.793L894.836 736.649L880.721 744.868L884.473 747.012ZM869.108 738.257L883.223 730.038L879.471 727.894L865.356 736.113L869.108 738.257ZM823.19 711.635L837.304 703.416L833.552 701.272L819.437 709.491L823.19 711.635ZM807.824 702.88L821.939 694.661L818.187 692.517L804.072 700.736L807.824 702.88ZM853.742 729.323L867.857 721.105L864.105 718.96L849.99 727.179L853.742 729.323ZM848.739 667.503L852.491 665.359L838.376 657.141L834.624 659.285L848.739 667.503ZM986.673 711.635L990.425 709.491L976.31 701.272L972.558 703.416L986.673 711.635ZM945.757 658.57L959.872 650.351L956.12 648.207L942.005 656.426L945.757 658.57ZM976.488 676.258L990.603 668.039L986.851 665.895L972.736 674.114L976.488 676.258ZM961.123 667.503L975.238 659.285L971.486 657.141L957.371 665.359L961.123 667.503ZM930.392 649.815L944.507 641.596L940.754 639.452L926.64 647.671L930.392 649.815ZM915.026 640.882L929.141 632.663L925.389 630.519L911.274 638.738L915.026 640.882ZM1002.04 702.88L1005.79 700.736L991.675 692.517L987.923 694.661L1002.04 702.88ZM879.471 649.815L883.223 647.671L869.108 639.452L865.356 641.596L879.471 649.815ZM864.105 658.57L867.857 656.426L853.742 648.207L849.99 650.351L864.105 658.57ZM971.307 720.569L975.059 718.424L960.944 710.206L957.192 712.35L971.307 720.569ZM894.836 640.882L898.588 638.738L884.473 630.519L880.721 632.663L894.836 640.882ZM991.675 685.192L1005.79 676.973L1002.04 674.829L987.923 683.048L991.675 685.192Z" fill="#0194FE"/>
<g opacity="0.52">
<path opacity="0.4" d="M580.02 228.154V723.606L905.914 911.746L1229.66 723.606V228.154H580.02Z" fill="url(#paint9_linear_24_145)"/>
<path opacity="0.4" d="M670.962 365.551V722.355L905.735 857.787L1138.72 722.355V365.551H670.962Z" fill="url(#paint10_linear_24_145)"/>
<path opacity="0.4" d="M759.761 231.013V688.051L905.377 772.026L1050.1 688.051V231.013H759.761Z" fill="url(#paint11_linear_24_145)"/>
</g>
<path d="M1058.78 514.116L942.782 580.146C923.715 590.999 900.33 590.961 881.299 580.046L758.469 509.6" stroke="url(#paint12_linear_24_145)" stroke-width="3.91602"/>
<defs>
<filter id="filter0_f_24_145" x="0.451904" y="0.319153" width="1808.91" height="1570.57" filterUnits="userSpaceOnUse" color-interpolation-filters="sRGB">
<feFlood flood-opacity="0" result="BackgroundImageFix"/>
<feBlend mode="normal" in="SourceGraphic" in2="BackgroundImageFix" result="shape"/>
<feGaussianBlur stdDeviation="303.46" result="effect1_foregroundBlur_24_145"/>
</filter>
<filter id="filter1_b_24_145" x="370.007" y="282.324" width="1069.85" height="844.545" filterUnits="userSpaceOnUse" color-interpolation-filters="sRGB">
<feFlood flood-opacity="0" result="BackgroundImageFix"/>
<feGaussianBlur in="BackgroundImageFix" stdDeviation="133.683"/>
<feComposite in2="SourceAlpha" operator="in" result="effect1_backgroundBlur_24_145"/>
<feBlend mode="normal" in="SourceGraphic" in2="effect1_backgroundBlur_24_145" result="shape"/>
</filter>
<filter id="filter2_b_24_145" x="342.865" y="266.301" width="1124.13" height="876.413" filterUnits="userSpaceOnUse" color-interpolation-filters="sRGB">
<feFlood flood-opacity="0" result="BackgroundImageFix"/>
<feGaussianBlur in="BackgroundImageFix" stdDeviation="133.683"/>
<feComposite in2="SourceAlpha" operator="in" result="effect1_backgroundBlur_24_145"/>
<feBlend mode="normal" in="SourceGraphic" in2="effect1_backgroundBlur_24_145" result="shape"/>
</filter>
<linearGradient id="paint0_linear_24_145" x1="1497.26" y1="1039.55" x2="1486.05" y2="734.247" gradientUnits="userSpaceOnUse">
<stop offset="0.120359" stop-color="#01C3FD" stop-opacity="0"/>
<stop offset="0.311574" stop-color="#01C3FD" stop-opacity="0.38"/>
<stop offset="0.879956" stop-color="#00C3FD" stop-opacity="0.69"/>
</linearGradient>
<linearGradient id="paint1_linear_24_145" x1="875.354" y1="805.802" x2="1306.84" y2="760.215" gradientUnits="userSpaceOnUse">
<stop offset="0.232734" stop-color="#0A205F"/>
<stop offset="0.644324" stop-color="#3168DA"/>
</linearGradient>
<linearGradient id="paint2_linear_24_145" x1="549.274" y1="805.802" x2="983.318" y2="759.666" gradientUnits="userSpaceOnUse">
<stop offset="0.232734" stop-color="#0A205F"/>
<stop offset="0.644324" stop-color="#3168DA"/>
</linearGradient>
<linearGradient id="paint3_linear_24_145" x1="428.179" y1="464.189" x2="728.033" y2="1107.67" gradientUnits="userSpaceOnUse">
<stop stop-color="#010D14"/>
<stop offset="0.597767" stop-color="#01124A"/>
<stop offset="0.879453" stop-color="#050F14"/>
</linearGradient>
<linearGradient id="paint4_linear_24_145" x1="376.922" y1="439.005" x2="707.474" y2="1150.37" gradientUnits="userSpaceOnUse">
<stop stop-color="#010D14"/>
<stop offset="0.155482" stop-color="#070214"/>
<stop offset="0.772926" stop-color="#050F14"/>
</linearGradient>
<linearGradient id="paint5_linear_24_145" x1="1046.16" y1="911.352" x2="925.176" y2="251.478" gradientUnits="userSpaceOnUse">
<stop offset="0.176173" stop-color="#0C213F"/>
<stop offset="0.644324"/>
</linearGradient>
<linearGradient id="paint6_linear_24_145" x1="743.482" y1="750.345" x2="941.496" y2="734.642" gradientUnits="userSpaceOnUse">
<stop offset="0.232734" stop-color="#0A205F"/>
<stop offset="0.644324" stop-color="#3168DA"/>
</linearGradient>
<linearGradient id="paint7_linear_24_145" x1="757.476" y1="688.802" x2="1052.4" y2="688.802" gradientUnits="userSpaceOnUse">
<stop stop-color="#0194FE"/>
<stop offset="1" stop-color="#290060"/>
</linearGradient>
<linearGradient id="paint8_linear_24_145" x1="733.416" y1="688.682" x2="1117.31" y2="644.882" gradientUnits="userSpaceOnUse">
<stop offset="0.232734" stop-color="#0A205F"/>
<stop offset="0.644324" stop-color="#3168DA"/>
</linearGradient>
<linearGradient id="paint9_linear_24_145" x1="929.01" y1="1091.65" x2="959.541" y2="158.461" gradientUnits="userSpaceOnUse">
<stop stop-color="#0194FE"/>
<stop offset="0.852811" stop-color="#0194FE" stop-opacity="0"/>
</linearGradient>
<linearGradient id="paint10_linear_24_145" x1="922.243" y1="987.335" x2="944.229" y2="315.367" gradientUnits="userSpaceOnUse">
<stop stop-color="#0194FE"/>
<stop offset="0.852811" stop-color="#0194FE" stop-opacity="0"/>
</linearGradient>
<linearGradient id="paint11_linear_24_145" x1="915.732" y1="914.411" x2="958.423" y2="177.539" gradientUnits="userSpaceOnUse">
<stop stop-color="#0194FE"/>
<stop offset="0.852811" stop-color="#0194FE" stop-opacity="0"/>
</linearGradient>
<linearGradient id="paint12_linear_24_145" x1="908.625" y1="597.661" x2="908.625" y2="509.6" gradientUnits="userSpaceOnUse">
<stop stop-color="white"/>
<stop offset="1" stop-color="white" stop-opacity="0"/>
</linearGradient>
</defs>
</svg>
