<svg width="54" height="69" viewBox="0 0 54 69" fill="none" xmlns="http://www.w3.org/2000/svg">
<path d="M50.82 29.6947L38.5155 26.2174C37.5109 25.9334 36.9412 24.8773 37.2596 23.889L43.127 5.67464C44.0093 4.52495 43.9814 2.87661 42.9798 1.74879C41.8409 0.46785 39.8764 0.344097 38.5913 1.4737L1.94606 33.7026C0.661297 34.8326 0.542937 36.788 1.68152 38.0699C2.08539 38.5258 2.61524 38.8532 3.20457 39.011C3.31187 39.0397 3.42076 39.0603 3.53009 39.0775C3.63392 39.1176 3.74026 39.1533 3.85026 39.1828L13.0654 41.652C14.1844 41.9518 14.7542 43.192 14.2488 44.2276L4.83033 63.5321C3.79487 64.6162 3.67645 66.3192 4.62424 67.5453C5.04015 68.0851 5.6233 68.4733 6.28292 68.6496C7.18582 68.8915 8.18689 68.7274 8.98409 68.1175L51.7065 35.4396C52.1003 35.1385 52.415 34.7471 52.6241 34.2986C52.7714 34.0604 52.8907 33.7996 52.9704 33.5169C53.4356 31.873 52.4726 30.1618 50.82 29.6947Z" fill="url(#paint0_linear_24_141)"/>
<defs>
<linearGradient id="paint0_linear_24_141" x1="36.3465" y1="-0.561149" x2="36.3465" y2="52.0913" gradientUnits="userSpaceOnUse">
<stop stop-color="#F7C243"/>
<stop offset="1" stop-color="#FD902B"/>
</linearGradient>
</defs>
</svg>
