<svg width="24" height="35" viewBox="0 0 24 35" fill="none" xmlns="http://www.w3.org/2000/svg">
<path d="M22.043 11.7312L16.1896 11.8354C15.7117 11.8439 15.3222 11.4564 15.331 10.9811L15.4922 2.22094C15.7268 1.60025 15.4964 0.881451 14.9081 0.519669C14.2394 0.108932 13.362 0.314676 12.9482 0.979873L1.15131 19.956C0.73773 20.6214 0.944626 21.4941 1.61334 21.9053C1.8507 22.0517 2.12627 22.1251 2.40546 22.1162C2.4563 22.1146 2.50675 22.1092 2.55695 22.1023C2.60776 22.1061 2.6591 22.1077 2.71121 22.1061L7.07711 21.9688C7.60729 21.9521 8.02113 22.4203 7.93667 22.9411L6.36327 32.649C6.05288 33.2612 6.22636 34.0233 6.80406 34.4353C7.05779 34.6169 7.36477 34.7099 7.67722 34.6998C8.10499 34.6864 8.52205 34.4819 8.79075 34.1091L23.1919 14.1319C23.3246 13.9478 23.4108 13.7346 23.4431 13.5104C23.4761 13.3865 23.4939 13.2563 23.4914 13.1219C23.4778 12.3398 22.8292 11.7172 22.043 11.7312Z" fill="url(#paint0_linear_24_50)"/>
<defs>
<linearGradient id="paint0_linear_24_50" x1="11.6949" y1="0.385054" x2="18.6632" y2="23.4634" gradientUnits="userSpaceOnUse">
<stop stop-color="#F7C243"/>
<stop offset="1" stop-color="#FD902B"/>
</linearGradient>
</defs>
</svg>
