<svg width="37" height="48" viewBox="0 0 37 48" fill="none" xmlns="http://www.w3.org/2000/svg">
<path d="M35.173 20.4953L26.6239 18.0793C25.9259 17.882 25.5301 17.1482 25.7513 16.4616L29.8279 3.80628C30.441 3.00748 30.4216 1.86223 29.7257 1.07862C28.9344 0.18863 27.5695 0.102647 26.6766 0.887489L1.21563 23.28C0.322978 24.0651 0.240742 25.4237 1.03183 26.3144C1.31243 26.6311 1.68057 26.8586 2.09003 26.9682C2.16459 26.9882 2.24024 27.0025 2.31621 27.0145C2.38834 27.0423 2.46223 27.0671 2.53865 27.0876L8.94127 28.8032C9.71879 29.0115 10.1146 29.8732 9.76349 30.5927L3.2196 44.0054C2.50017 44.7586 2.41789 45.9419 3.07642 46.7938C3.36539 47.1688 3.77056 47.4385 4.22886 47.561C4.85619 47.7291 5.55173 47.615 6.10562 47.1913L35.7889 24.4868C36.0625 24.2776 36.2813 24.0057 36.4265 23.6941C36.5288 23.5286 36.6118 23.3474 36.6671 23.151C36.9904 22.0088 36.3213 20.8199 35.173 20.4953Z" fill="url(#paint0_linear_24_92)"/>
<defs>
<linearGradient id="paint0_linear_24_92" x1="25.1169" y1="-0.526313" x2="25.1169" y2="36.0564" gradientUnits="userSpaceOnUse">
<stop stop-color="#F7C243"/>
<stop offset="1" stop-color="#FD902B"/>
</linearGradient>
</defs>
</svg>
