<svg width="33" height="43" viewBox="0 0 33 43" fill="none" xmlns="http://www.w3.org/2000/svg">
<path d="M31.3252 18.3136L23.843 16.1991C23.2321 16.0264 22.8857 15.3842 23.0793 14.7833L26.6472 3.7073C27.1837 3.00819 27.1667 2.00585 26.5577 1.32004C25.8651 0.541113 24.6706 0.46586 23.8891 1.15276L1.60553 20.7508C0.824284 21.4379 0.75231 22.6269 1.44467 23.4065C1.69026 23.6837 2.01245 23.8828 2.37082 23.9788C2.43607 23.9962 2.50228 24.0088 2.56877 24.0192C2.6319 24.0436 2.69657 24.0653 2.76345 24.0832L8.36705 25.5847C9.04754 25.767 9.39399 26.5211 9.08666 27.1509L3.35942 38.8898C2.72977 39.549 2.65776 40.5846 3.23411 41.3302C3.48701 41.6584 3.84162 41.8944 4.24273 42.0016C4.79177 42.1487 5.40051 42.0489 5.88527 41.6781L31.8643 21.807C32.1037 21.6239 32.2951 21.3859 32.4223 21.1132C32.5118 20.9683 32.5844 20.8098 32.6329 20.6378C32.9158 19.6382 32.3301 18.5977 31.3252 18.3136Z" fill="url(#paint0_linear_24_35)"/>
<defs>
<linearGradient id="paint0_linear_24_35" x1="22.5241" y1="-0.0846089" x2="22.5241" y2="31.9327" gradientUnits="userSpaceOnUse">
<stop stop-color="#F7C243"/>
<stop offset="1" stop-color="#FD902B"/>
</linearGradient>
</defs>
</svg>
